<?xml version="1.0" standalone="no"?>
<!DOCTYPE svg PUBLIC "-//W3C//DTD SVG 20010904//EN"
"http://www.w3.org/TR/2001/REC-SVG-20010904/DTD/svg10.dtd">
<svg version="1.0" xmlns="http://www.w3.org/2000/svg"
width="698.000000pt" height="698.000000pt" viewBox="0 0 698.000000 698.000000"
preserveAspectRatio="xMidYMid meet">
<metadata>
Created by potrace 1.14, written by Peter Selinger 2001-2017
</metadata>
<g transform="translate(0.000000,698.000000) scale(0.100000,-0.100000)"
fill="#000000" stroke="none">
<path d="M2377 5804 c-4 -4 -20 -7 -37 -6 -17 0 -28 -3 -25 -8 3 -4 -4 -6 -15
-3 -11 3 -33 0 -49 -5 -21 -8 -33 -8 -37 0 -4 7 -9 7 -13 0 -5 -9 -61 -23 -98
-25 -7 0 -13 -4 -13 -9 0 -5 -5 -6 -10 -3 -6 4 -17 1 -25 -5 -8 -6 -19 -9 -25
-5 -5 3 -10 2 -10 -3 0 -9 -55 -26 -72 -23 -5 0 -8 -4 -8 -10 0 -5 -5 -7 -11
-4 -5 4 -19 -1 -30 -11 -10 -9 -22 -14 -25 -11 -4 3 -16 1 -28 -5 -11 -7 -23
-13 -26 -13 -15 -3 -86 -42 -92 -50 -4 -5 -8 -6 -8 -2 0 5 -13 -1 -30 -13 -16
-12 -30 -18 -30 -13 0 4 -5 0 -11 -10 -6 -9 -14 -15 -18 -13 -4 3 -19 -5 -32
-17 -13 -12 -27 -21 -31 -19 -5 1 -8 -3 -8 -9 0 -5 -4 -8 -9 -5 -5 3 -11 -1
-15 -9 -3 -8 -13 -15 -21 -15 -9 0 -13 -4 -10 -10 3 -5 1 -10 -4 -10 -25 0
-52 -20 -44 -32 2 -5 -2 -8 -10 -8 -8 0 -18 -7 -21 -16 -3 -8 -10 -13 -14 -10
-9 5 -48 -35 -45 -46 2 -4 -6 -10 -17 -13 -11 -4 -20 -11 -20 -16 0 -6 -5 -7
-10 -4 -6 4 -9 3 -8 -2 2 -4 -21 -32 -50 -60 -29 -29 -51 -56 -49 -60 3 -5 -1
-14 -9 -21 -8 -7 -14 -10 -14 -6 0 4 -13 -10 -29 -32 -16 -21 -28 -40 -26 -42
1 -2 -10 -17 -26 -35 -16 -17 -29 -37 -29 -43 0 -7 -7 -15 -16 -18 -8 -3 -12
-10 -9 -16 3 -5 1 -10 -5 -10 -7 0 -10 -6 -7 -13 3 -7 -6 -24 -19 -36 -14 -13
-22 -26 -19 -29 3 -3 -2 -16 -10 -29 -9 -13 -12 -23 -8 -23 5 0 3 -4 -3 -8
-13 -9 -54 -97 -54 -116 0 -8 -5 -18 -10 -21 -6 -4 -8 -11 -5 -16 4 -5 1 -9
-6 -9 -7 0 -9 -3 -6 -7 4 -3 2 -12 -4 -20 -6 -7 -8 -13 -4 -13 4 0 2 -7 -5
-15 -7 -8 -9 -15 -6 -15 4 0 2 -8 -3 -19 -11 -19 -23 -73 -25 -103 0 -10 -5
-18 -10 -18 -5 0 -6 -3 -3 -6 3 -4 2 -15 -4 -25 -7 -14 -6 -19 2 -19 8 0 8 -4
1 -13 -6 -7 -13 -28 -14 -46 -1 -18 -6 -35 -10 -37 -5 -3 -4 -14 2 -24 6 -10
6 -21 2 -24 -12 -7 -24 -287 -13 -310 2 -5 5 -28 6 -50 4 -73 15 -148 26 -168
9 -16 8 -19 -3 -12 -11 6 -11 5 1 -9 7 -9 11 -17 8 -17 -3 0 1 -24 10 -52 9
-29 16 -59 16 -65 0 -7 3 -13 7 -13 3 0 6 -10 7 -22 2 -27 51 -126 114 -233
25 -44 57 -98 69 -120 115 -206 201 -333 221 -327 5 1 8 -2 7 -6 -5 -14 120
-132 126 -119 3 9 5 9 5 0 1 -16 37 -51 87 -85 21 -15 58 -41 81 -57 28 -20
43 -26 47 -18 2 7 5 4 5 -6 1 -11 13 -22 31 -28 16 -6 30 -15 30 -21 0 -5 4
-7 9 -4 5 3 25 -6 46 -19 20 -14 41 -23 46 -20 5 4 9 1 9 -4 0 -6 9 -11 20
-11 11 0 23 -6 26 -14 3 -8 12 -12 20 -9 8 3 14 1 14 -4 0 -5 7 -10 15 -11 8
-1 22 -3 30 -4 8 -1 15 -5 15 -10 0 -5 6 -8 13 -6 6 1 22 -3 35 -10 12 -7 27
-10 32 -7 6 3 10 1 10 -5 0 -6 4 -9 9 -5 5 3 12 2 15 -3 2 -4 19 -9 37 -10 18
-2 36 -7 39 -11 3 -5 19 -8 37 -7 18 1 29 -2 26 -7 -4 -6 5 -8 21 -5 14 3 26
2 26 -2 0 -4 6 -7 13 -7 32 -1 131 -14 138 -18 4 -3 11 -1 14 5 5 8 11 8 19 1
7 -6 63 -10 133 -9 128 1 144 -4 151 -47 2 -11 9 -23 15 -27 7 -4 9 -8 5 -8
-4 0 -2 -13 3 -30 6 -17 16 -27 22 -23 6 3 7 1 3 -6 -8 -13 73 -181 87 -181 4
0 5 -5 2 -10 -3 -6 1 -13 9 -16 9 -3 16 -14 16 -25 0 -10 9 -23 20 -29 11 -6
19 -16 17 -23 -1 -7 4 -11 11 -9 8 1 11 -2 6 -9 -4 -7 1 -18 10 -25 10 -7 18
-16 18 -21 2 -15 25 -32 33 -25 5 4 5 2 1 -5 -3 -6 4 -21 16 -32 12 -12 18
-21 14 -21 -4 0 -1 -6 6 -14 7 -8 16 -12 19 -10 3 2 11 -8 18 -22 6 -14 16
-22 21 -19 6 3 10 1 10 -5 0 -15 26 -41 34 -33 3 4 6 0 6 -8 0 -8 12 -23 27
-34 15 -11 37 -30 49 -43 13 -12 26 -22 29 -22 3 0 20 -13 38 -30 18 -16 35
-30 39 -30 7 0 35 -21 62 -46 6 -6 17 -9 24 -6 7 2 11 0 10 -5 -2 -4 0 -8 3
-8 4 0 16 -8 27 -18 12 -11 26 -16 33 -11 7 4 10 3 6 -3 -6 -10 47 -40 56 -32
2 2 11 -4 21 -13 10 -10 24 -18 32 -18 8 0 14 -5 14 -11 0 -5 4 -8 9 -4 5 3
12 1 16 -5 4 -6 11 -8 16 -5 5 4 9 1 9 -4 0 -6 9 -11 19 -11 11 0 23 -5 26
-10 4 -6 10 -8 15 -5 5 3 12 0 15 -6 4 -5 13 -8 21 -5 8 3 14 1 14 -5 0 -6 7
-9 15 -5 8 3 15 2 15 -3 0 -5 15 -12 33 -16 17 -4 37 -9 44 -10 6 -2 28 -8 47
-15 20 -6 40 -9 46 -5 5 3 10 1 10 -5 0 -6 4 -9 9 -5 5 3 12 2 15 -3 2 -4 21
-7 40 -7 20 1 36 -2 36 -6 0 -4 16 -6 35 -5 19 1 35 -1 35 -4 0 -3 12 -5 28
-4 15 1 35 -3 45 -8 11 -6 17 -5 17 2 0 8 6 8 20 0 15 -8 20 -8 20 2 0 8 3 9
8 3 4 -5 16 -10 27 -10 11 0 23 5 27 10 5 7 8 6 8 0 0 -6 16 -11 35 -11 19 0
35 4 35 9 0 5 6 5 13 -1 7 -6 18 -8 24 -4 7 4 33 7 58 7 25 -1 45 2 45 5 0 4
12 6 27 4 15 -1 48 1 73 6 25 5 59 12 75 16 17 3 38 6 48 7 9 1 17 5 17 10 0
5 7 7 15 4 8 -4 17 -2 20 4 4 5 10 7 15 4 11 -7 41 5 36 14 -3 4 8 6 25 5 16
-1 29 2 29 7 0 5 3 8 8 7 4 0 15 2 25 5 41 16 53 20 62 23 27 7 81 30 85 35 3
4 16 10 30 14 13 4 30 14 38 21 7 8 22 14 33 14 10 0 19 4 19 8 0 5 18 17 40
27 22 10 37 22 34 27 -3 5 -2 8 3 7 18 -3 32 2 45 15 8 7 29 21 47 30 17 9 35
24 38 32 3 7 11 14 19 14 8 0 14 3 14 8 0 4 14 15 31 24 17 10 27 22 24 28 -4
6 -1 9 7 8 7 -2 12 3 10 10 -1 8 2 11 7 7 6 -3 30 14 55 39 24 25 47 42 51 38
4 -4 5 -2 3 4 -2 7 13 28 32 47 37 38 37 38 90 107 19 24 41 51 48 58 7 8 9
18 6 24 -4 6 -3 8 3 5 6 -4 19 9 29 28 10 19 22 35 27 35 4 0 5 4 2 10 -3 5
-1 10 5 10 6 0 8 5 5 10 -3 5 -2 10 3 10 5 0 15 14 22 30 7 16 17 30 22 30 5
0 7 4 3 9 -3 5 2 16 10 25 9 8 15 17 15 18 -2 4 15 46 48 120 17 36 28 69 25
72 -4 3 -2 6 4 6 5 0 10 6 11 13 2 21 7 42 15 54 4 6 8 23 9 37 1 14 5 26 9
26 3 0 6 6 6 13 0 6 3 23 6 37 17 74 20 86 19 103 0 9 3 17 8 17 4 0 7 8 6 17
-2 10 0 32 4 49 4 17 3 39 -3 49 -6 12 -6 16 1 11 5 -3 12 1 16 9 3 8 2 15 -2
15 -4 0 -6 19 -4 42 7 94 7 174 0 194 -3 12 -2 26 5 33 6 6 7 11 1 11 -5 0
-10 12 -10 28 -5 85 -8 111 -13 107 -4 -2 -7 11 -8 28 -1 18 -4 43 -8 57 -4
14 -7 32 -7 40 0 8 -4 20 -8 25 -4 6 -6 18 -5 28 2 9 -1 17 -6 17 -5 0 -9 10
-9 23 0 13 -5 28 -12 35 -7 7 -9 12 -5 12 8 0 4 7 -123 230 -155 270 -214 365
-247 398 -18 17 -31 32 -27 32 3 0 -9 12 -27 28 -18 15 -37 26 -42 24 -5 -1
-6 2 -3 7 3 5 -8 19 -25 32 -18 13 -45 36 -62 51 -16 15 -33 25 -38 22 -5 -3
-9 2 -9 11 0 9 -4 13 -10 10 -5 -3 -10 -1 -10 5 0 6 -4 8 -10 5 -5 -3 -10 1
-10 10 0 9 -4 13 -10 10 -5 -3 -10 -2 -10 3 0 5 -16 17 -35 26 -19 9 -37 21
-40 26 -4 6 -11 8 -16 5 -5 -4 -9 -1 -9 4 0 6 -7 11 -15 11 -8 0 -15 5 -15 11
0 5 -4 7 -10 4 -5 -3 -10 -1 -10 6 0 7 -8 9 -21 6 -12 -3 -18 -3 -15 0 8 8
-20 33 -38 33 -8 0 -18 5 -21 10 -3 6 -14 10 -24 10 -10 0 -24 7 -31 15 -7 9
-19 14 -27 11 -7 -3 -13 -2 -13 3 0 5 -10 12 -22 16 -13 4 -27 9 -33 11 -112
40 -158 53 -166 49 -5 -4 -9 -2 -9 3 0 6 -16 11 -35 11 -19 1 -48 2 -65 3 -16
1 -30 6 -30 11 0 5 -13 7 -30 5 -16 -3 -30 -2 -30 2 0 3 -13 5 -30 4 -16 -1
-30 2 -30 7 0 5 -11 4 -25 -1 -17 -7 -25 -6 -25 1 0 7 -5 8 -12 3 -16 -11 -39
-11 -56 0 -7 4 -19 3 -26 -4 -11 -8 -15 -8 -18 1 -3 9 -9 9 -26 0 -15 -8 -22
-8 -22 -1 0 7 -6 8 -18 1 -13 -7 -22 -7 -30 1 -6 6 -16 7 -24 2 -23 -15 -112
-11 -128 5 -8 8 -16 18 -16 23 -1 4 -3 11 -4 16 -1 4 -2 10 -1 15 0 4 -3 7 -9
7 -6 0 -9 3 -8 8 4 14 -13 52 -23 52 -6 0 -8 4 -4 9 3 5 1 12 -5 16 -6 4 -8
11 -5 16 4 5 1 9 -4 9 -6 0 -11 9 -11 19 0 11 -4 22 -9 25 -5 3 -18 26 -30 51
-12 25 -26 45 -32 45 -5 0 -8 4 -4 9 3 5 -2 16 -10 24 -8 9 -15 20 -15 26 0 6
-4 11 -10 11 -5 0 -10 5 -10 10 0 11 -10 24 -42 61 -10 10 -18 23 -18 29 0 5
-9 15 -20 22 -11 7 -20 17 -20 21 0 5 -22 30 -50 57 -27 26 -46 50 -43 54 4 3
1 6 -5 6 -7 0 -25 14 -40 30 -16 17 -33 30 -37 30 -4 0 -16 11 -27 25 -11 14
-24 23 -29 20 -5 -4 -9 1 -9 9 0 8 -9 18 -20 21 -11 3 -20 11 -20 17 0 6 -3 8
-6 5 -4 -4 -15 3 -25 15 -11 11 -19 18 -19 14 0 -6 -12 2 -45 32 -8 7 -20 10
-26 6 -7 -4 -9 -3 -5 4 3 6 -7 16 -24 24 -16 7 -30 17 -30 21 0 5 -4 5 -10 2
-5 -3 -10 -3 -10 2 0 4 -14 16 -31 25 -17 10 -27 12 -23 5 4 -6 -2 -4 -13 6
-11 9 -23 14 -26 10 -4 -3 -7 0 -7 9 0 8 -7 15 -15 16 -8 1 -22 3 -30 4 -8 1
-15 6 -15 11 0 5 -7 7 -15 3 -8 -3 -14 0 -12 7 1 7 -6 11 -15 9 -10 -2 -18 1
-18 6 0 5 -6 9 -12 10 -7 0 -43 11 -79 25 -36 13 -73 23 -82 21 -9 -1 -15 2
-11 7 3 5 -4 10 -15 10 -12 1 -29 2 -38 2 -10 1 -20 4 -23 8 -3 4 -21 8 -40
10 -19 2 -41 7 -47 12 -9 6 -13 5 -13 -4 0 -11 -2 -11 -8 -1 -5 7 -33 14 -63
17 -30 2 -55 5 -56 6 -9 6 -31 4 -47 -4 -13 -6 -16 -6 -12 2 4 6 0 11 -8 11
-9 0 -16 -6 -16 -12 0 -9 -3 -10 -8 -2 -10 15 -162 16 -162 1 0 -8 -3 -8 -8
-2 -8 12 -22 13 -39 2 -6 -4 -13 -2 -15 4 -2 5 -7 7 -11 3z m147 -1546 c4 7
17 7 36 2 17 -5 30 -6 30 -3 0 3 7 0 15 -7 8 -7 15 -9 15 -5 0 5 9 -2 19 -14
14 -16 21 -18 24 -9 3 8 6 5 6 -6 1 -11 4 -16 8 -13 6 7 53 -66 57 -88 1 -5 4
-14 7 -20 5 -10 4 -95 -1 -105 -2 -3 -4 -9 -4 -15 -2 -13 -37 -66 -57 -85 -28
-27 -77 -50 -119 -56 -44 -6 -130 12 -130 27 0 5 -6 9 -13 9 -29 0 -95 106
-89 144 2 10 0 16 -5 13 -8 -5 -10 26 -3 43 1 3 2 8 1 12 -2 16 30 76 56 105
34 38 125 86 134 71 4 -7 9 -7 13 0z m1967 -1197 c0 10 2 11 6 2 2 -7 14 -13
26 -13 11 0 18 -3 14 -6 -3 -4 8 -16 26 -28 18 -12 32 -28 32 -36 1 -8 6 -14
13 -12 7 1 11 -1 10 -5 -1 -5 2 -19 6 -33 16 -62 13 -120 -9 -165 -13 -24 -20
-47 -16 -51 3 -4 0 -4 -6 0 -7 4 -13 2 -13 -3 0 -6 -5 -11 -11 -11 -16 0 -39
-26 -31 -36 4 -5 3 -6 -1 -3 -4 4 -25 -1 -45 -11 -24 -12 -39 -14 -43 -8 -4 7
-9 6 -13 -1 -4 -6 -17 -9 -30 -5 -26 6 -57 12 -71 13 -5 1 -23 12 -39 26 -16
14 -33 25 -38 25 -4 0 -8 6 -8 14 0 7 -7 19 -15 26 -9 7 -13 15 -11 18 3 2 1
13 -5 24 -6 11 -10 40 -9 64 1 67 3 74 12 74 4 0 8 6 8 13 1 17 46 67 61 67 7
0 9 3 6 6 -8 8 55 44 66 37 4 -2 7 0 7 6 0 5 8 8 18 7 9 -2 25 3 36 10 15 11
23 10 42 -3 20 -12 24 -13 25 -2z"/>
</g>
</svg>
