<?xml version="1.0" standalone="no"?>
<!DOCTYPE svg PUBLIC "-//W3C//DTD SVG 20010904//EN"
"http://www.w3.org/TR/2001/REC-SVG-20010904/DTD/svg10.dtd">
<svg version="1.0" xmlns="http://www.w3.org/2000/svg"
width="494.000000pt" height="494.000000pt" viewBox="0 0 494.000000 494.000000"
preserveAspectRatio="xMidYMid meet">
<metadata>
Created by potrace 1.14, written by Peter Selinger 2001-2017
</metadata>
<g transform="translate(0.000000,494.000000) scale(0.100000,-0.100000)"
fill="#000000" stroke="none">
<path d="M1730 4101 c-14 -4 -42 -6 -62 -6 -21 1 -38 -1 -38 -5 0 -3 -17 -6
-38 -7 -35 -3 -74 -9 -79 -13 -3 -3 -3 -3 -53 -14 -19 -5 -39 -12 -45 -16 -5
-4 -23 -10 -40 -14 -30 -7 -211 -92 -230 -108 -5 -5 -39 -30 -75 -56 -93 -68
-259 -240 -260 -269 0 -7 -5 -13 -12 -13 -6 0 -9 -3 -5 -6 3 -3 -4 -16 -16
-28 -12 -11 -23 -28 -25 -36 -2 -8 -8 -16 -13 -18 -5 -2 -9 -8 -9 -13 0 -5
-13 -36 -29 -69 -24 -50 -49 -111 -56 -140 -1 -3 -5 -14 -9 -25 -13 -33 -16
-46 -22 -84 -8 -46 -12 -66 -14 -66 -6 0 -14 -119 -13 -215 0 -138 7 -202 35
-305 5 -22 12 -48 13 -57 2 -9 9 -27 16 -40 7 -13 12 -25 12 -28 -2 -18 62
-152 99 -207 15 -23 28 -46 28 -52 0 -6 5 -11 10 -11 6 0 10 -4 10 -10 0 -5
10 -22 23 -36 45 -54 113 -128 137 -150 74 -67 106 -94 112 -94 4 0 13 -6 20
-13 14 -13 99 -71 108 -73 3 0 41 -18 85 -40 44 -21 85 -39 90 -40 6 0 19 -4
30 -8 57 -22 72 -27 95 -32 14 -4 35 -7 48 -8 12 0 22 -3 22 -6 0 -3 8 -6 18
-7 9 -1 44 -5 77 -8 33 -4 101 -7 152 -8 67 0 94 -4 97 -14 3 -7 4 -15 3 -17
-1 -1 4 -10 12 -19 7 -10 11 -17 8 -17 -4 0 5 -21 18 -46 14 -26 25 -53 25
-60 0 -8 5 -14 10 -14 6 0 10 -7 10 -15 0 -8 5 -15 11 -15 5 0 7 -5 4 -10 -3
-6 -2 -10 2 -10 5 0 17 -16 27 -35 11 -19 23 -35 28 -35 4 0 7 -3 6 -7 -8 -24
248 -286 264 -271 2 2 16 -9 31 -23 35 -32 239 -135 287 -145 8 -2 23 -7 35
-13 19 -9 69 -24 90 -26 6 -1 19 -4 30 -7 37 -12 230 -31 290 -29 64 3 174 16
230 28 86 19 110 26 120 31 6 4 21 8 35 10 13 2 27 6 30 10 3 4 11 8 19 10 33
7 171 76 171 85 0 6 3 8 6 4 6 -5 96 51 147 92 78 63 120 104 205 200 58 66
192 292 192 325 0 6 6 23 14 38 8 15 18 42 22 60 10 41 9 40 17 58 3 8 8 31
11 50 3 19 8 46 11 60 5 22 11 88 18 197 1 17 -1 29 -5 27 -5 -3 -4 6 1 19 6
14 7 28 4 31 -4 3 -8 25 -10 49 -5 56 -32 190 -47 232 -35 95 -62 161 -68 163
-5 2 -8 12 -8 23 0 10 -4 19 -9 19 -5 0 -11 8 -14 18 -7 20 -56 105 -66 112
-3 3 -21 25 -40 50 -39 51 -87 104 -115 129 -11 9 -30 26 -42 37 -13 12 -25
19 -28 16 -3 -3 -6 -1 -6 5 0 10 -67 59 -83 61 -5 0 -16 9 -25 19 -21 23 -82
57 -82 46 0 -4 -4 -3 -8 3 -8 13 -132 77 -132 69 0 -4 -12 1 -27 9 -33 18
-133 48 -133 39 0 -3 -6 -1 -12 4 -7 5 -28 9 -45 8 -18 0 -33 2 -33 5 0 3 -15
6 -32 7 -133 8 -185 8 -195 0 -9 -6 -13 -5 -13 2 0 8 -8 10 -19 6 -61 -19
-121 0 -121 39 0 8 -4 18 -10 21 -5 3 -10 15 -10 26 0 10 -5 19 -11 19 -5 0
-7 5 -4 10 3 6 1 10 -4 10 -6 0 -10 3 -9 8 2 4 -8 25 -21 47 -14 22 -25 43
-25 47 -1 3 -23 37 -51 75 -69 94 -180 204 -269 268 -16 11 -34 25 -40 30 -6
6 -23 16 -36 24 -100 58 -147 83 -162 86 -9 2 -30 11 -47 19 -17 9 -34 17 -38
17 -5 1 -19 6 -33 11 -14 5 -33 10 -42 11 -10 1 -18 4 -18 7 0 6 -33 11 -80
14 -14 0 -27 4 -30 8 -3 4 -37 10 -75 13 -39 3 -85 7 -102 9 -19 1 -33 -2 -33
-8 0 -7 -3 -8 -8 -1 -8 12 -28 14 -62 6z m116 -1090 c15 -1 84 -67 85 -80 3
-26 4 -30 10 -36 11 -10 0 -88 -14 -97 -6 -4 -8 -8 -2 -8 5 0 -2 -11 -17 -25
-15 -14 -32 -25 -38 -25 -5 0 -10 -5 -10 -11 0 -5 -4 -8 -9 -4 -5 3 -12 1 -15
-4 -15 -24 -116 5 -151 44 -51 56 -48 153 7 205 42 40 75 49 154 41z m1353
-850 c30 -17 56 -53 67 -94 24 -98 -41 -186 -141 -191 -134 -7 -204 154 -107
247 50 48 130 65 181 38z"/>
</g>
</svg>
